<?xml version="1.0" encoding="UTF-8"?>
<svg width="200px" height="200px" viewBox="0 0 200 200" version="1.1" xmlns="http://www.w3.org/2000/svg" xmlns:xlink="http://www.w3.org/1999/xlink">
    <title>logo200x200</title>
    <defs>
        <linearGradient x1="50%" y1="3.20475989%" x2="50%" y2="96.652113%" id="linearGradient-1">
            <stop stop-color="#5856D6" offset="0%"></stop>
            <stop stop-color="#AF52DE" offset="100%"></stop>
        </linearGradient>
        <linearGradient x1="9.21466947%" y1="19.6198862%" x2="90.7846695%" y2="80.3730846%" id="linearGradient-2">
            <stop stop-color="#D3DFF2" offset="0%"></stop>
            <stop stop-color="#D3DFF2" offset="17.17%"></stop>
            <stop stop-color="#D3DFF2" offset="20%"></stop>
            <stop stop-color="#DAE2F2" offset="20.02%"></stop>
            <stop stop-color="#EBEAF2" offset="20.07%"></stop>
            <stop stop-color="#F6EFF2" offset="20.14%"></stop>
            <stop stop-color="#FDF2F2" offset="20.23%"></stop>
            <stop stop-color="#FFF3F2" offset="20.5%"></stop>
            <stop stop-color="#FFF3F2" offset="25.22%"></stop>
            <stop stop-color="#FFF3F2" offset="26%"></stop>
            <stop stop-color="#D3DFF2" offset="26%"></stop>
            <stop stop-color="#D3DFF2" offset="39.74%"></stop>
            <stop stop-color="#D3DFF2" offset="42%"></stop>
            <stop stop-color="#DAE2F2" offset="42.02%"></stop>
            <stop stop-color="#EBEAF2" offset="42.07%"></stop>
            <stop stop-color="#F6EFF2" offset="42.14%"></stop>
            <stop stop-color="#FDF2F2" offset="42.23%"></stop>
            <stop stop-color="#FFF3F2" offset="42.5%"></stop>
            <stop stop-color="#FFF3F2" offset="48.94%"></stop>
            <stop stop-color="#FFF3F2" offset="50%"></stop>
            <stop stop-color="#F8F0F2" offset="50%"></stop>
            <stop stop-color="#E7E8F2" offset="50.01%"></stop>
            <stop stop-color="#DCE3F2" offset="50.03%"></stop>
            <stop stop-color="#D5E0F2" offset="50.05%"></stop>
            <stop stop-color="#D3DFF2" offset="50.1%"></stop>
            <stop stop-color="#D3DFF2" offset="70.62%"></stop>
            <stop stop-color="#D3DFF2" offset="74%"></stop>
            <stop stop-color="#FFF3F2" offset="74.1%"></stop>
            <stop stop-color="#FFF3F2" offset="83.46%"></stop>
            <stop stop-color="#FFF3F2" offset="85%"></stop>
            <stop stop-color="#D3DFF2" offset="85.1%"></stop>
        </linearGradient>
    </defs>
    <g id="logo200x200" stroke="none" stroke-width="1" fill="none" fill-rule="evenodd">
        <circle id="Oval" stroke="#D3DFF2" stroke-width="6" fill="url(#linearGradient-1)" cx="100" cy="100" r="95"></circle>
        <g id="macintosh" transform="translate(42.000000, 36.000000)" fill-rule="nonzero">
            <rect id="Rectangle" fill="#D4E1F4" x="18" y="108" width="80" height="22"></rect>
            <rect id="Rectangle" fill="#A4C2F7" x="97" y="108" width="7" height="22"></rect>
            <rect id="Rectangle" fill="#FFFFFF" x="11" y="108" width="7" height="22"></rect>
            <g id="Group" transform="translate(73.000000, 115.000000)" fill="#A4C2F7">
                <rect id="Rectangle" x="0.192894737" y="0.188485714" width="15.7192105" height="8.77705714"></rect>
                <rect id="Rectangle" x="15.9123684" y="0.188485714" width="8.98236842" height="8.77705714"></rect>
            </g>
            <path d="M15.4989426,2 L99.5010574,2 C103.090253,2 106,4.88724365 106,8.44868164 L106,100.551318 C106,104.112756 103.090253,107 99.5010574,107 L15.4989426,107 C11.9097468,107 9,104.112756 9,100.551318 L9,8.44893799 C9,4.88724365 11.9097468,2 15.4989426,2 Z" id="Path" fill="#D4E1F4"></path>
            <path d="M8.55698721,101.550821 L8.55698721,9.4486659 C8.55698721,5.8872366 11.4416928,3 15,3 L8.86843194,3 C5.07526056,3 2,6.07770245 2,9.87445831 L2,101.125542 C2,104.922041 5.07500443,108 8.86843194,108 L15,108 C11.4416928,108 8.55698721,105.112251 8.55698721,101.550821 Z" id="Path" fill="#FFFFFF"></path>
            <g id="Group" transform="translate(15.000000, 2.000000)" fill="#A4C2F7">
                <path d="M90.855878,0.13746472 L84.632748,0.13746472 C88.244191,0.13746472 91.1719735,3.04227737 91.1719735,6.62538686 L91.1719735,99.2882141 C91.1719735,102.871324 88.244191,105.776136 84.632748,105.776136 L90.855878,105.776136 C92.7046207,105.776136 94.4777188,105.047547 95.784992,103.75053 C97.0922653,102.453513 97.8266154,100.694326 97.8266154,98.8600876 L97.8266154,7.05377129 C97.8266154,3.23416058 94.7056923,0.13746472 90.855878,0.13746472 Z" id="Path"></path>
                <rect id="Rectangle" x="0.225374005" y="92.571528" width="8.87276923" height="6.60243309"></rect>
                <rect id="Rectangle" x="66.7717931" y="85.9690949" width="15.5274111" height="8.80315815"></rect>
            </g>
            <path d="M20.2273678,13 L89.7726322,13 C94.3165745,13 98,16.6863743 98,21.2339544 L98,68.7660456 C98,73.3136257 94.3165745,77 89.7726322,77 L20.2273678,77 C15.6834255,77 12,73.3136257 12,68.7660456 L12,21.2339544 C12,16.6863743 15.6834255,13 20.2273678,13 Z" id="Path" fill="url(#linearGradient-2)"></path>
            <path d="M94.9466244,13 L89.0002437,13 C91.0584938,13 93.0324153,13.8676712 94.4876919,15.4118933 C95.9429686,16.9561154 96.7606629,19.0509401 96.7606629,21.2349889 L96.7606629,68.7650111 C96.7606629,73.3131084 93.2861321,77 89,77 L94.9463807,77 C99.3943456,77 103,73.1739707 103,68.4541494 L103,21.5458506 C103.000244,16.8260293 99.3945893,13 94.9466244,13 L94.9466244,13 Z" id="Path" fill="#A4C2F7"></path>
            <g id="Group" fill="#428DFF">
                <path d="M22.136723,35.199916 C21.2428829,35.1996562 20.4371059,34.6636641 20.095214,33.8417578 C19.7533221,33.0198516 19.9421396,32.0736797 20.5741216,31.4446172 L29.4148761,22.6447031 C30.2802252,21.7988203 31.6685135,21.8052656 32.5260923,22.658625 C33.3836712,23.5119844 33.3898874,24.8941172 32.5400788,25.7554687 L23.6993243,34.5553828 C23.2854279,34.9686562 22.7228604,35.2006875 22.136723,35.199916 Z" id="Path"></path>
                <path d="M22.136723,46.2000019 C21.2428829,46.1997422 20.4371059,45.66375 20.095214,44.8418438 C19.7533221,44.0199375 19.9421396,43.0737656 20.5741216,42.4447031 L24.9946284,38.0446172 C25.8599775,37.1987344 27.2482658,37.2051797 28.1058446,38.0585391 C28.9634234,38.9121563 28.9696396,40.2940313 28.1198311,41.1553828 L23.6993243,45.5554688 C23.2854279,45.9687422 22.7228604,46.2007734 22.136723,46.2000019 Z" id="Path"></path>
                <path d="M30.9774775,37.4000859 C30.8290653,37.3962188 30.6811712,37.3815234 30.5350901,37.356 C30.3965203,37.3315078 30.2623536,37.2869063 30.1369932,37.224 C29.9963514,37.1755313 29.8629617,37.1085 29.7399324,37.0252266 C29.6288176,36.9383438 29.5187387,36.8501719 29.4086599,36.762 C29.0048649,36.3402188 28.7759009,35.7825703 28.7676126,35.1999141 C28.7707207,34.9121953 28.8305518,34.6278281 28.9434797,34.3630547 C29.0558896,34.0967344 29.2131081,33.8515547 29.4086599,33.6378281 C29.5187387,33.5499141 29.6288176,33.4617422 29.7399324,33.3735703 C29.8629617,33.2902969 29.9966104,33.2235234 30.1369932,33.1747969 C30.2623536,33.1116328 30.3967793,33.0672891 30.5353491,33.0438281 C30.9660811,32.9541094 31.4141667,32.9997422 31.8174437,33.1747969 C32.371982,33.3758906 32.8089302,33.8108203 33.0109572,34.3627969 C33.1244032,34.6275703 33.1844932,34.9119375 33.1881194,35.1996563 C33.1793131,35.7820547 32.9503491,36.3397031 32.5470721,36.7617422 C32.3318356,36.9556172 32.085259,37.1118516 31.8174437,37.2237422 C31.5514414,37.3366641 31.2662725,37.3964766 30.9774775,37.4000859 Z" id="Path"></path>
                <path d="M35.3979842,33.0000019 C34.5041441,32.9997422 33.6983671,32.46375 33.3564752,31.6418437 C33.0145833,30.8199375 33.2034009,29.8737656 33.8353829,29.2447031 L40.4660135,22.6447031 C41.3313626,21.7988203 42.7196509,21.8052656 43.5772297,22.658625 C44.4348086,23.5122422 44.4410248,24.8941172 43.5912162,25.7554687 L36.9605856,32.3554687 C36.5466892,32.7687422 35.9841216,33.0007734 35.3979842,33.0000019 Z" id="Path"></path>
                <path d="M22.136723,57.2000868 C21.2428829,57.1998281 20.4371059,56.6638359 20.095214,55.8419297 C19.7533221,55.0200234 19.9421396,54.0738516 20.5741216,53.4447891 L40.4660135,33.6447891 C41.3313626,32.7989063 42.7196509,32.8053516 43.5772297,33.6587109 C44.4348086,34.5123281 44.4410248,35.8942031 43.5912162,36.7555547 L23.6993243,56.5555547 C23.2854279,56.9685703 22.7228604,57.2006016 22.136723,57.2000868 Z" id="Path"></path>
                <path d="M46.4488626,33 C46.3004505,32.9948438 46.1528153,32.9801484 46.0064752,32.9559141 C45.8679054,32.9314219 45.7337387,32.8868203 45.6083784,32.8236562 C45.4677365,32.7751875 45.3343468,32.7081563 45.2113176,32.6248828 C45.0952815,32.5444453 44.9844257,32.4565312 44.880045,32.3616562 C44.7849887,32.2572422 44.6964077,32.1468984 44.6145608,32.0319141 C44.5306419,31.9091953 44.4635586,31.7759062 44.4148649,31.6353984 C44.3511486,31.5106172 44.3068581,31.3770703 44.2832883,31.2391406 C44.2584234,31.0937344 44.2436599,30.9470391 44.2392568,30.7995703 C44.2335586,30.1369922 44.5301239,29.5076719 45.0455518,29.0887266 C45.5609797,28.6695234 46.2398423,28.5058125 46.890732,28.6437422 C47.0293018,28.6672031 47.1634685,28.7115469 47.2888288,28.7747109 C47.4297297,28.8229219 47.5638964,28.8899531 47.6871847,28.9734844 C47.8029617,29.0549531 47.9135586,29.143125 48.0184572,29.2377422 C48.4219932,29.6595234 48.6506982,30.2174297 48.6595045,30.7998281 C48.6543243,30.9470391 48.6395608,31.0937344 48.615214,31.2391406 C48.5906081,31.3770703 48.5457995,31.5106172 48.4823423,31.6353984 C48.4339077,31.7756484 48.3665653,31.9091953 48.2826464,32.0319141 C48.1311261,32.2714219 47.927545,32.4740625 47.6869257,32.6248828 C47.5636374,32.7084141 47.4297297,32.7751875 47.2885698,32.8236562 C47.1629505,32.8868203 47.0287838,32.9314219 46.890473,32.9559141 C46.7443919,32.9801484 46.5970158,32.9948438 46.4488626,33 L46.4488626,33 Z" id="Path"></path>
                <path d="M50.8693694,28.599916 C49.9755293,28.5996562 49.1697523,28.0636641 48.8278604,27.2417578 C48.4859685,26.4198516 48.674786,25.4736797 49.306768,24.8446172 L51.5168919,22.6447031 C52.382241,21.7988203 53.7705293,21.8052656 54.6281081,22.658625 C55.4856869,23.5122422 55.4919032,24.8941172 54.6420946,25.7554687 L52.4319707,27.9553828 C52.0180743,28.3686562 51.4557658,28.6006875 50.8693694,28.599916 L50.8693694,28.599916 Z" id="Path"></path>
                <path d="M105.809583,110.000086 L9.19041667,110.000086 C4.13611486,109.994414 0.0401463964,105.917367 0.0344481982,100.886414 L0.0344481982,35.1999141 C0.0344481982,33.9848438 1.02412162,33 2.24457207,33 C3.46502252,33 4.45469595,33.9851016 4.45469595,35.1999141 L4.45469595,100.886156 C4.45728604,103.488258 6.57597973,105.597164 9.19015766,105.599742 L105.809065,105.599742 C108.423243,105.597164 110.541937,103.488258 110.544527,100.886156 L110.544527,87.9999141 C110.544527,86.7848437 111.5342,85.8 112.754651,85.8 C113.97536,85.8 114.964775,86.7848437 114.964775,87.9999141 L114.964775,100.886156 C114.959595,105.917367 110.863885,109.994156 105.809583,110.000086 L105.809583,110.000086 Z" id="Path"></path>
                <path d="M112.755169,70.4000859 C111.534459,70.4000859 110.545045,69.4152422 110.545045,68.2001719 L110.545045,9.11367187 C110.542455,6.51157031 108.423761,4.40266406 105.809583,4.40008594 L9.19041667,4.40008594 C6.57623874,4.40266406 4.45754505,6.51157031 4.45495495,9.11367187 L4.45495495,17.6011172 C4.45495495,18.8161875 3.46528153,19.8010313 2.24483108,19.8010313 C1.02438063,19.8010313 0.0347072072,18.8159297 0.0347072072,17.6011172 L0.0347072072,9.11367187 C0.0404054054,4.08271875 4.13611486,0.005671875 9.19041667,0 L105.809324,0 C110.863626,0.005671875 114.959595,4.08271875 114.965293,9.11367187 L114.965293,68.1999141 C114.965293,69.4149844 113.975878,70.4000859 112.755169,70.4000859 Z" id="Path"></path>
                <ellipse id="Oval" cx="2.24483108" cy="26.4" rx="2.21012387" ry="2.19991406"></ellipse>
                <path d="M112.755169,81.3999141 C111.534459,81.3999141 110.545045,80.4150703 110.545045,79.2 L110.545045,77.0000859 C110.545045,75.7850156 111.534718,74.8001719 112.755169,74.8001719 C113.975878,74.8001719 114.965293,75.7850156 114.965293,77.0000859 L114.965293,79.2 C114.965552,80.4150703 113.975878,81.3999141 112.755169,81.3999141 Z" id="Path"></path>
                <path d="M106.124797,132 L8.87546171,132 L8.87546171,105.6 L106.124797,105.6 L106.124797,132 L106.124797,132 Z M13.2957095,127.599914 L101.704032,127.599914 L101.704032,109.999828 L13.2957095,109.999828 L13.2957095,127.599914 Z" id="Shape"></path>
                <path d="M90.6531532,125.4 L70.7612613,125.4 L70.7612613,112.2 L90.6531532,112.2 L90.6531532,125.4 Z M75.181768,120.999914 L86.2329054,120.999914 L86.2329054,116.599828 L75.181768,116.599828 L75.181768,120.999914 L75.181768,120.999914 Z" id="Shape"></path>
                <path d="M99.4939077,125.4 L86.2326464,125.4 L86.2326464,112.2 L99.4939077,112.2 L99.4939077,125.4 Z M90.6531532,120.999914 L95.0736599,120.999914 L95.0736599,116.599828 L90.6531532,116.599828 L90.6531532,120.999914 Z" id="Shape"></path>
                <path d="M95.3562387,79.2 L19.6437613,79.2 C13.6992455,79.1932969 8.88219595,74.3985 8.87546171,68.4814453 L8.87546171,21.7186406 C8.88219595,15.8015859 13.6992455,11.0067891 19.6437613,11.0000859 L95.3564977,11.0000859 C101.301014,11.0067891 106.118063,15.8015859 106.124797,21.7186406 L106.124797,68.4814453 C106.118063,74.3985 101.300755,79.1932969 95.3562387,79.2 Z M19.6437613,15.3999141 C16.1396284,15.4042969 13.3001126,18.2306953 13.2957095,21.7186406 L13.2957095,68.4814453 C13.2998536,71.9693906 16.1393694,74.7957891 19.6435023,74.7999141 L95.3562387,74.7999141 C98.8603716,74.7957891 101.699887,71.9693906 101.704032,68.4814453 L101.704032,21.7186406 C101.699887,18.2306953 98.8603716,15.4042969 95.3562387,15.3999141 L19.6437613,15.3999141 L19.6437613,15.3999141 Z" id="Shape"></path>
                <path d="M26.5569707,103.400086 L13.2957095,103.400086 L13.2957095,92.4 L26.5569707,92.4 L26.5569707,103.400086 Z M17.7162162,99 L22.136723,99 L22.136723,96.8000859 L17.7162162,96.8000859 L17.7162162,99 Z" id="Shape"></path>
                <rect id="Rectangle" x="59.7101239" y="90.2000859" width="24.3123986" height="4.40008594"></rect>
                <rect id="Rectangle" x="97.2837838" y="90.2000859" width="6.63063063" height="4.40008594"></rect>
                <path d="M99.4939077,99 L79.6020158,99 L79.6020158,85.8 L99.4939077,85.8 L99.4939077,99 Z M84.0225225,94.5999141 L95.0736599,94.5999141 L95.0736599,90.1998281 L84.0225225,90.1998281 L84.0225225,94.5999141 Z" id="Shape"></path>
            </g>
        </g>
    </g>
</svg>